<svg width="50" height="35" viewBox="0 0 50 35" fill="none" xmlns="http://www.w3.org/2000/svg">
<path fill-rule="evenodd" clip-rule="evenodd" d="M2 0C0.895431 0 0 0.89543 0 2V33C0 34.1046 0.89543 35 2 35H2.11694H12H47.1169C48.2215 35 49.1169 34.1046 49.1169 33V4C49.1169 2.89543 48.2215 2 47.1169 2H14C14 0.895431 13.1046 0 12 0H2Z" fill="#4E4EFF"/>
<rect x="3.99997" y="6" width="43" height="27" rx="1" fill="white"/>
<path fill-rule="evenodd" clip-rule="evenodd" d="M18.9665 4C17.8619 4 16.9665 4.89543 16.9665 6V8H3.74794C2.70082 8 1.83096 8.80766 1.75343 9.85191L0.0457012 32.8519C-0.0404066 34.0116 0.877302 35 2.04021 35H47.1176C48.2222 35 49.1176 34.1046 49.1176 33V14.0039C49.1176 14.0026 49.1176 14.0013 49.1176 14L49.1176 10L49.1176 6C49.1176 4.89543 48.2222 4 47.1176 4H18.9665Z" fill="#C1C1FF"/>
</svg>
