<?xml version="1.0" encoding="utf-8"?>
<!-- Generator: Adobe Illustrator 23.0.1, SVG Export Plug-In . SVG Version: 6.00 Build 0)  -->
<svg version="1.1" id="Layer_1" xmlns="http://www.w3.org/2000/svg" xmlns:xlink="http://www.w3.org/1999/xlink" x="0px" y="0px"
	 viewBox="0 0 945 238" style="enable-background:new 0 0 945 238;" xml:space="preserve">
<style type="text/css">
	.st0{fill-rule:evenodd;clip-rule:evenodd;fill:#020202;}
</style>
<g>
	<path class="st0" d="M253.5,191.4h16l4.9-33.6c5.7,2.6,11.3,3.9,16.9,3.9c26.2,0,39.3-14.4,39.3-43.1c0-26-14.1-39-42.2-39
		c-12.3,0-23.9,1.1-34.9,3.4V191.4z M274.4,97.3c3.9-0.7,8.9-1.1,14.8-1.1c13.8,0,20.7,7.4,20.7,22.2c0,17.4-6.2,26-18.7,26
		c-6,0-11.6-1.4-16.8-4.2V97.3z M373.9,96c11.6,0,17.4,5.8,17.4,17.3v0.6h-35.3C356.8,102,362.8,96,373.9,96z M336.7,120.3
		c0,28.4,15,42.6,45,42.6c10.5,0,19.4-0.8,26.7-2.4v-16.7c-8.4,1.6-16.7,2.4-25.1,2.4c-17.2,0-25.7-5.9-25.7-17.6h55
		c0.5-3.5,0.7-6.9,0.7-10.3c0-25.8-12.6-38.8-37.7-38.8C349.6,79.5,336.7,93.1,336.7,120.3z M441,162.9v-58.2
		c6.5-5.4,13.1-8.2,19.9-8.2c9.1,0,13.7,4.6,13.7,13.8v52.6h20.9v-52.6c0-20.5-9.8-30.8-29.4-30.8c-10.1,0-19.2,4.1-27.1,12.2
		l-2.6-12.2h-16.2v83.4H441z M503.6,140.4c0,15,7,22.5,20.8,22.5h18.6l-4.8-16.7h-3.7c-6.7,0-10-3.9-10-11.7V96.2h18.5V79.5h-20.8
		L519.1,66h-15.5V140.4z M614.4,143.8c-6.8,1.6-13.4,2.4-19.7,2.4c-16.6,0-24.8-8.9-24.8-26.6c0-15.6,8.3-23.4,24.8-23.4
		c6.3,0,12.9,0.8,19.7,2.4V81.9c-6.8-1.6-13.9-2.4-21.3-2.4c-29.5,0-44.2,13.4-44.2,40.1c0,28.9,14.7,43.3,44.2,43.3
		c7.4,0,14.5-0.8,21.3-2.4V143.8z M623.9,51.4v110.9h20.9V51.4H623.9z M692.9,163c27.4,0,41-14,41-41.8c0-27.9-13.7-41.9-41-41.9
		c-27.3,0-41,14-41,41.9C651.9,149.1,665.6,163,692.9,163z M672.8,120.9c0-17,6.7-25.5,20.1-25.5c13.4,0,20.1,8.5,20.1,25.5
		c0,17.4-6.7,26.1-20.1,26.1C679.4,147,672.8,138.3,672.8,120.9z M794.2,79.5v58.2c-7,5.4-14,8.2-20.7,8.2c-8,0-12-4.6-12-13.8V79.5
		h-20.9v53.1c0,20.2,8.5,30.3,25.4,30.3c10.7,0,20.8-3.5,30.3-10.7l2.5,10.7h16.3V79.5H794.2z M899.3,52.6h-17.5l-3.4,33.2
		c-5.8-2.6-11.5-3.9-17.1-3.9c-26.2,0-39.3,13-39.3,38.9c0,28.1,13.4,42.1,40.2,42.1c12.1,0,24.5-1.6,37.2-4.9V52.6z M878.4,143.4
		c-4.8,1.5-10,2.3-15.5,2.3c-13.5,0-20.3-8.5-20.3-25.4c0-14.2,6.5-21.4,19.5-21.4c6.5,0,11.9,1.4,16.3,4.2V143.4z M162.3,76.3
		c0-0.7,0.1-1.4,0.1-2.1c0-15.5-12.1-28.1-27-28.1c-11.7,0-21.6,7.7-25.4,18.4c-2.4-1-5-1.5-7.7-1.5c-11.8,0-21.4,10-21.4,22.2v0
		c-9.1,0.5-16.3,8.4-16.3,18c0,9.9,7.8,18,17.3,18h74.4h0.7h0.8c12.1,0,21.9-10.2,21.9-22.8C179.7,87.6,172.2,78.5,162.3,76.3z
		 M211.9,153H30.8l-1.3-3.7c-1-3.3-1.9-6.9-2.6-10.2c0-0.6-1.7-10.9-1.7-13.5v-10.4c0.4-6.5,1.3-13.1,3-19.5
		c3-11.5,8.3-23.2,17.3-34.7c9.9-12.8,23.3-22.5,34.9-27.9c3-1.4,6.1-2.6,9.1-3.7c2.9-1,6.2-1.9,9.4-2.8c1.4-0.3,3-0.7,4.6-1
		c1.5-0.3,11.7-1.5,13-1.5h9.5c5.8,0,18.9,2.8,21.5,3.5c11.8,3.6,24.3,9.2,36.2,19.3c12.8,10.9,20.9,23.5,26,35.2
		c1.3,2.8,2.6,6.4,3.5,9.3c1.1,3.6,2.3,8,2.9,11.7c0,0.6,1.5,10.5,1.5,12.2v10.1c-0.4,6.2-1.4,12.7-3,19
		C213.8,147.3,212.9,150.1,211.9,153z M126,12.4h-9.4C94.8,13,65.1,23.1,45.1,43.9c-22.9,23.5-30,47.8-31.6,71.4v10.1
		c0,6.8,3,22,4.7,26.9c1.4,4.1,3,8.7,4.8,12.7c2.1,4.6,4.6,9.3,7.7,14.1H212c11.8-17.9,16-36.1,17.3-53.9v-10
		c0-0.4-0.7-6.9-1.1-10.4c-2.1-18-12.6-43.6-30.5-61C173.8,21,149.7,13.9,126,12.4z M51,202.3c21.5,18.4,43.7,24.5,65.3,26h10
		c6.6,0,19.6-2.6,24.7-4.1c3.9-1.1,8.6-2.8,12.6-4.4c9.1-3.9,18.9-9.4,28.3-17.5H51z M917.9,62h2.1c0.9,0,1.5,0.1,1.9,0.2
		c0.3,0.1,0.6,0.3,0.8,0.6c0.2,0.2,0.3,0.6,0.3,0.9c0,0.5-0.2,0.9-0.6,1.3c-0.4,0.3-1.1,0.5-2.2,0.5h-2.3V62z M917.9,73.9v-5.1h1.3
		c0.8,0.2,1.4,0.5,1.8,0.8c0.4,0.5,1.1,1.3,2.2,2.5l1.4,1.8h3.5l-1.8-2.2c-0.9-1.1-1.6-1.8-2.2-2.2c-0.3-0.2-0.7-0.4-1.3-0.6
		c1.1-0.1,2-0.6,2.6-1.6c0.7-1,1-2.2,1-3.5c0-0.9-0.2-1.9-0.7-2.7c-0.5-0.8-1.1-1.4-1.9-1.8c-0.8-0.3-2.1-0.5-3.9-0.5h-5.3v15.2
		H917.9z M927.1,56.7c1.9,1,3.4,2.3,4.4,4.1c1.1,1.8,1.6,3.6,1.6,5.5c0,1.9-0.5,3.7-1.6,5.5c-1.1,1.8-2.5,3.1-4.4,4.1
		c-1.9,1-3.9,1.5-5.9,1.5c-2.1,0-4-0.5-5.9-1.5c-1.9-1-3.3-2.3-4.4-4.1c-1.1-1.7-1.6-3.6-1.6-5.5c0-1.9,0.5-3.7,1.6-5.5
		c1.1-1.7,2.5-3.1,4.4-4.1c1.9-0.9,3.8-1.4,5.8-1.4C923.3,55.3,925.2,55.7,927.1,56.7z M913.8,53.8c-2.4,1.2-4.3,3-5.7,5.3
		c-1.4,2.3-2,4.7-2,7.2c0,2.5,0.7,4.9,2,7.1c1.3,2.3,3.2,4.1,5.7,5.3c2.4,1.3,4.9,1.9,7.5,1.9c2.6,0,5.2-0.6,7.6-1.9
		c2.4-1.3,4.3-3,5.6-5.3c1.3-2.3,2-4.7,2-7.1c0-2.5-0.7-4.9-2-7.2c-1.4-2.3-3.3-4.1-5.7-5.3c-2.4-1.2-4.9-1.9-7.5-1.9
		C918.8,51.9,916.3,52.5,913.8,53.8z"/>
</g>
</svg>
