<svg xmlns="http://www.w3.org/2000/svg" xmlns:xlink="http://www.w3.org/1999/xlink" viewBox="0 0 163.81 151"><defs><style>.cls-1{fill:url(#Degradado_sin_nombre_46);}.cls-2{fill:#862bfc;}.cls-3,.cls-4{fill:aqua;}.cls-3,.cls-9{opacity:0.2;}.cls-4{opacity:0.4;}.cls-5{fill:#ed00f4;}.cls-6{fill:#7800ff;}.cls-7{fill:#fff;}.cls-8{fill:#ff50f3;}.cls-9{fill:#f2f2f2;}</style><linearGradient id="Degradado_sin_nombre_46" x1="54.43" y1="134.82" x2="118.31" y2="24.19" gradientUnits="userSpaceOnUse"><stop offset="0" stop-color="#007aff"/><stop offset="0.28" stop-color="#4559ff"/><stop offset="0.94" stop-color="#ee08ff"/><stop offset="1" stop-color="#f0f"/></linearGradient></defs><title>Trackspace</title><g id="Capa_2" data-name="Capa 2"><g id="Capa_1-2" data-name="Capa 1"><path class="cls-1" d="M150.23,79.51c0,.89,0,1.78,0,2.67s-.11,2-.2,3a1.5,1.5,0,0,1,0,.22c-.08,1-.19,1.91-.32,2.85a63.29,63.29,0,0,1-1.57,7.82c-.35,1.32-.75,2.63-1.18,3.92-.2.6-.42,1.19-.64,1.78s-.44,1.18-.68,1.76c-.15.38-.31.76-.47,1.13-.35.83-.72,1.64-1.11,2.45l-.17.34c-.35.73-.72,1.44-1.09,2.15a65.27,65.27,0,0,1-4.66,7.43l0,0c-.47.65-1,1.3-1.46,1.93s-1.07,1.33-1.62,2c-.21.24-.41.48-.62.71l-.3.35c-.88,1-1.78,1.93-2.72,2.86a63,63,0,0,1-6.54,5.65l0,0c-.65.5-1.3,1-2,1.43a58.36,58.36,0,0,1-5.11,3.2,63.87,63.87,0,0,1-62.58,0A59.89,59.89,0,0,1,50,132c-.67-.47-1.34-1-2-1.45h0a64,64,0,0,1-6.54-5.65l-.05,0c-.69-.69-1.36-1.39-2-2.11l-.17-.18c-.27-.29-.54-.59-.8-.89h0c-.2-.22-.39-.45-.58-.68Q36.3,119.24,35,117.4c-.09-.11-.18-.23-.26-.35l0,0a63.62,63.62,0,0,1-4.53-7.2l-.13-.23c-.38-.72-.75-1.43-1.1-2.16l-.16-.33c-.51-1.06-1-2.12-1.43-3.21-.05-.11-.09-.23-.14-.35v0c-.24-.58-.47-1.16-.68-1.75s-.43-1.18-.64-1.78c-.43-1.3-.83-2.61-1.19-3.94-.43-1.62-.8-3.28-1.11-5-.06-.36-.13-.72-.18-1.07-.1-.59-.19-1.18-.27-1.78-.26-1.84-.43-3.72-.52-5.6v-.11c0-.11,0-.23,0-.34,0-.74,0-1.48,0-2.23h0V79c0-.84,0-1.67.07-2.49,0-.48.05-.95.08-1.43l0-.35q.11-1.42.27-2.85.33-2.83.92-5.58t1.29-5.09c.16-.55.34-1.1.52-1.65,0-.12.08-.25.13-.38.2-.63.43-1.26.66-1.89.47-1.25,1-2.48,1.51-3.7.12-.27.24-.54.37-.8.4-.89.83-1.75,1.28-2.61.21-.41.42-.82.64-1.22L31,47.67c.23-.41.47-.81.72-1.21a61.76,61.76,0,0,1,3.8-5.59q1.84-2.43,3.92-4.68c.47-.51,1-1,1.46-1.52l.52-.52.4-.39c.48-.48,1-.93,1.46-1.39q1.53-1.39,3.15-2.7a65.05,65.05,0,0,1,6.24-4.42,64,64,0,0,1,56.24-5.51c.64.24,1.27.49,1.9.75a64.17,64.17,0,0,1,9.26,4.76c.92.57,1.82,1.16,2.7,1.78l1.36,1a65.47,65.47,0,0,1,5.33,4.37l.19.18.2.18c.49.45,1,.92,1.44,1.38l0,0a63.22,63.22,0,0,1,5,5.58A60.58,60.58,0,0,1,140,44.79c.6.93,1.18,1.88,1.74,2.84,0,0,0,0,0,0,.41.7.8,1.41,1.18,2.13l.18.36a1.74,1.74,0,0,1,.1.19c.63,1.23,1.22,2.47,1.78,3.75.42,1,.81,1.95,1.19,2.95,0,.07.05.15.08.22.13.35.26.69.38,1,0,0,0,0,0,0q.5,1.41.93,2.85c.21.7.4,1.41.59,2.13a63.42,63.42,0,0,1,1.62,8.54q.16,1.42.27,2.85l0,.35c0,.38,0,.76.07,1.13C150.21,77.29,150.23,78.4,150.23,79.51Z"/><path class="cls-2" d="M150.23,79.51c0,.89,0,1.78,0,2.67s-.11,2-.2,3a1.5,1.5,0,0,1,0,.22H107.9a6.76,6.76,0,0,1,0-13.52h41.88q.16,1.42.27,2.85l0,.35c0,.38,0,.76.07,1.13C150.21,77.29,150.23,78.4,150.23,79.51Z"/><path class="cls-2" d="M146.63,58.31h-46.2a6.76,6.76,0,0,1,0-13.52H140c.6.93,1.18,1.88,1.74,2.84,0,0,0,0,0,0,.41.7.8,1.41,1.18,2.13l.18.36a1.74,1.74,0,0,1,.1.19c.63,1.23,1.22,2.47,1.78,3.75.42,1,.81,1.95,1.19,2.95,0,.07.05.15.08.22C146.38,57.62,146.51,58,146.63,58.31Z"/><path class="cls-2" d="M62.35,40.11A6.36,6.36,0,0,1,56,46.46H31.72a61.76,61.76,0,0,1,3.8-5.59q1.84-2.43,3.92-4.68c.47-.51,1-1,1.46-1.52l.52-.52.4-.39H56A6.35,6.35,0,0,1,62.35,40.11Z"/><path class="cls-2" d="M124.74,130.56c-.65.5-1.3,1-2,1.43a58.36,58.36,0,0,1-5.11,3.2,63.87,63.87,0,0,1-62.58,0A59.89,59.89,0,0,1,50,132c-.67-.47-1.34-1-2-1.45Z"/><path class="cls-2" d="M34.67,117a63.62,63.62,0,0,1-4.53-7.2l-.13-.23c-.38-.72-.75-1.43-1.1-2.16l-.16-.33c-.51-1.06-1-2.12-1.43-3.21-.05-.11-.09-.23-.14-.35v0h118.4c-.15.38-.31.76-.47,1.13-.35.83-.72,1.64-1.11,2.45l-.17.34c-.35.73-.72,1.44-1.09,2.15a65.27,65.27,0,0,1-4.66,7.43Z"/><path class="cls-2" d="M129.65,32.55H75.76a6,6,0,0,1,0-12.06h35.05a64.17,64.17,0,0,1,9.26,4.76c.92.57,1.82,1.16,2.7,1.78l1.36,1a65.47,65.47,0,0,1,5.33,4.37Z"/><path class="cls-2" d="M144.19,65.1a6.76,6.76,0,0,0-6.76-6.76h9.21q.5,1.41.93,2.85c.21.7.4,1.41.59,2.13a63.42,63.42,0,0,1,1.62,8.54H137.43A6.76,6.76,0,0,0,144.19,65.1Z"/><path class="cls-2" d="M57.38,117a5.12,5.12,0,0,0-.69,0,6.76,6.76,0,0,0,.69,13.48H48a64,64,0,0,1-6.54-5.65l-.05,0c-.69-.69-1.36-1.39-2-2.11l-.17-.18c-.27-.29-.54-.59-.8-.89h0c-.2-.22-.39-.45-.58-.68Q36.3,119.24,35,117.4c-.09-.11-.18-.23-.26-.35Z"/><path class="cls-2" d="M65.24,65.51a6.35,6.35,0,0,1-6.35,6.35H23q.33-2.83.92-5.58t1.29-5.09c.16-.55.34-1.1.52-1.65,0-.12.08-.25.13-.38H58.89A6.35,6.35,0,0,1,65.24,65.51Z"/><path class="cls-2" d="M57,59.16H25.82c.2-.63.43-1.26.66-1.89.47-1.25,1-2.48,1.51-3.7.12-.27.24-.54.37-.8.4-.89.83-1.75,1.28-2.61.21-.41.42-.82.64-1.22L31,47.67c.23-.41.47-.81.72-1.21H57a6.35,6.35,0,0,0,0,12.7Z"/><path class="cls-3" d="M141.77,95.6a4,4,0,0,1-1.37.92c-6,2.78-27.42,4.84-53,4.84-25,0-46.1-2-52.57-4.66a4.58,4.58,0,0,1-1.79-1.14C39.65,119.45,61.5,138,87.44,138a56.4,56.4,0,0,0,54.68-42.55Z"/><path class="cls-3" d="M32.91,94.6l-.1,0a1.21,1.21,0,0,0,0,.18A1.21,1.21,0,0,1,32.91,94.6Z"/><path class="cls-4" d="M142.05,95c0,.54-.57,1.07-1.65,1.57-6,2.78-27.42,4.84-53,4.84-25,0-46.1-2-52.57-4.66-1.33-.56-2-1.14-2-1.75s.46-1,1.35-1.42c3.37-1.74,12.77-3.21,25.48-4.09,8.14-.57,17.64-.89,27.78-.89s19.61.32,27.75.89c13.15.91,22.76,2.45,25.82,4.26C141.7,94.11,142.05,94.53,142.05,95Z"/><path class="cls-5" d="M84.33,42.1a19.06,19.06,0,0,0-19,19c0,5.48,2.76,12.36,8.21,20.42a100.19,100.19,0,0,0,7.86,10.18,4,4,0,0,0,5.93,0,99.43,99.43,0,0,0,7.87-10.18c5.44-8.06,8.2-14.94,8.2-20.42A19.06,19.06,0,0,0,84.33,42.1Zm0,24.78A6.9,6.9,0,1,1,91.22,60,6.9,6.9,0,0,1,84.33,66.88Z"/><rect class="cls-6" x="115.63" width="5.48" height="5.48"/><rect class="cls-6" y="70.09" width="5.48" height="5.48"/><rect class="cls-6" x="158.33" y="94.28" width="5.48" height="5.48"/><rect class="cls-6" x="56.21" y="145.52" width="5.48" height="5.48"/><rect class="cls-7" x="33.73" y="69.13" width="5.48" height="5.48"/><rect class="cls-6" x="146.02" y="120.6" width="5.48" height="5.48"/><rect class="cls-7" x="85.03" y="127.37" width="5.48" height="5.48"/><rect class="cls-7" x="132" y="82.9" width="5.48" height="5.48"/><path class="cls-8" d="M86.46,42.1a19.06,19.06,0,0,0-19,19c0,5.48,2.76,12.36,8.2,20.42A97.83,97.83,0,0,0,83.5,91.74a4,4,0,0,0,5.93,0,100.19,100.19,0,0,0,7.86-10.18c5.45-8.06,8.21-14.94,8.21-20.42A19.06,19.06,0,0,0,86.46,42.1Zm0,24.78A6.9,6.9,0,1,1,93.36,60,6.89,6.89,0,0,1,86.46,66.88Z"/><circle class="cls-9" cx="85.84" cy="79.84" r="68.49"/></g></g></svg>