<svg xmlns="http://www.w3.org/2000/svg" viewBox="0 0 155.38 148.57"><defs><style>.cls-1{fill:#15cebc;}.cls-2{opacity:0.1;}.cls-3{fill:#f3ad39;}.cls-4{fill:#0048fa;}.cls-5,.cls-6{fill:aqua;}.cls-10,.cls-5{opacity:0.2;}.cls-6{opacity:0.4;}.cls-7{fill:#244afb;}.cls-8{fill:#fff;}.cls-9{fill:#9be2d0;}.cls-10{fill:#f0f0f0;}</style></defs><title>Formspace</title><g id="Capa_2" data-name="Capa 2"><g id="Capa_1-2" data-name="Capa 1"><path class="cls-1" d="M141.67,72.56c0,.91,0,1.81,0,2.71s-.11,2-.2,3-.21,2.09-.35,3.12a64.08,64.08,0,0,1-2.81,11.94c-.2.61-.42,1.22-.64,1.81-.37,1-.76,2-1.17,2.95s-.74,1.67-1.13,2.49a65.55,65.55,0,0,1-7.54,12.1c-.83,1.06-1.7,2.09-2.59,3.09s-1.81,2-2.76,2.91a65.65,65.65,0,0,1-8.7,7.24c-1.68,1.16-3.42,2.25-5.2,3.26a65.08,65.08,0,0,1-63.68,0c-1.79-1-3.53-2.1-5.2-3.26a66.39,66.39,0,0,1-8.71-7.24q-1.08-1.08-2.1-2.19l-.17-.19a61.57,61.57,0,0,1-4.3-5.23,64.24,64.24,0,0,1-4.91-7.72c-.49-.91-1-1.84-1.41-2.77-.51-1.08-1-2.16-1.45-3.26-.3-.72-.58-1.44-.85-2.18s-.44-1.2-.65-1.81a64.57,64.57,0,0,1-2.34-9.05c-.18-1-.33-1.92-.46-2.89-.26-1.88-.44-3.78-.52-5.71h0a.28.28,0,0,1,0-.09c0-.12,0-.23,0-.35,0-.75-.05-1.5-.05-2.27h0v-.44c0-1.52.05-3,.16-4.53a2.19,2.19,0,0,1,0-.36,63.81,63.81,0,0,1,2.52-13.76c.17-.56.34-1.12.52-1.67q.39-1.17.81-2.31.87-2.34,1.91-4.59c.42-.9.85-1.78,1.3-2.65l.66-1.24c.24-.44.48-.87.73-1.3a65.26,65.26,0,0,1,8.59-11.67c.48-.53,1-1.05,1.48-1.56l.53-.52c.62-.62,1.26-1.22,1.9-1.81,1-.95,2.11-1.87,3.2-2.75a63.82,63.82,0,0,1,6.35-4.49,64.84,64.84,0,0,1,68.59,0c.93.57,1.85,1.18,2.75,1.81.47.31.92.64,1.38,1a67.78,67.78,0,0,1,5.42,4.45l.4.37q.76.7,1.5,1.44a65.39,65.39,0,0,1,5.1,5.68,64.47,64.47,0,0,1,5.5,8.07c.41.72.81,1.44,1.2,2.18.06.12.12.24.19.36a1.74,1.74,0,0,0,.1.19c.64,1.25,1.24,2.52,1.8,3.82.43,1,.83,2,1.21,3l.09.23c.49,1.31.93,2.63,1.34,4,.21.72.41,1.44.6,2.17a64.33,64.33,0,0,1,1.93,11.59c0,.12,0,.24,0,.36,0,.38.06.77.07,1.15C141.64,70.3,141.67,71.42,141.67,72.56Z"/><g class="cls-2"><path class="cls-3" d="M122.43,118.72a65.65,65.65,0,0,1-8.7,7.24H39.65a66.39,66.39,0,0,1-8.71-7.24Z"/><path class="cls-3" d="M138.26,93.37c-.54,1.62-1.15,3.2-1.81,4.76-.36.84-.74,1.67-1.13,2.49H18.05c-.51-1.08-1-2.16-1.45-3.26q-.81-2-1.5-4Z"/><path class="cls-3" d="M141.67,72.56c0,.91,0,1.81,0,2.71H11.75c0-.9-.05-1.8-.05-2.71,0-1.52.05-3,.16-4.53H141.51c0,.38.06.77.07,1.15C141.64,70.3,141.67,71.42,141.67,72.56Z"/><path class="cls-3" d="M137.62,49.93H15.74q.87-2.34,1.91-4.59c.42-.9.85-1.78,1.3-2.65H134.42a1.74,1.74,0,0,0,.1.19c.64,1.25,1.24,2.52,1.8,3.82.43,1,.83,2,1.21,3Z"/><path class="cls-3" d="M120.53,24.59H32.84c1-.95,2.11-1.87,3.2-2.75a63.82,63.82,0,0,1,6.35-4.49H111c1.42.87,2.79,1.81,4.13,2.79A67.78,67.78,0,0,1,120.53,24.59Z"/></g><path class="cls-4" d="M32.51,115.46a6.77,6.77,0,0,0-3.67,1.07q1,1.11,2.1,2.19A66.39,66.39,0,0,0,39.65,126c1.67,1.16,3.41,2.25,5.2,3.26h63.68c1.78-1,3.52-2.1,5.2-3.26a65.65,65.65,0,0,0,8.7-7.24q1.42-1.41,2.76-2.91a6.74,6.74,0,0,0-2.16-.35Z"/><path class="cls-4" d="M91.16,19.16h22.57c-.9-.63-1.82-1.24-2.75-1.81a64.54,64.54,0,0,0-11.36-5.62H91.16a3.72,3.72,0,0,0,0,7.43Z"/><path class="cls-4" d="M110,74.55a6.88,6.88,0,0,1,6.88-6.88h24.62a64.33,64.33,0,0,0-1.93-11.59c-.19-.73-.39-1.45-.6-2.17-.41-1.35-.85-2.67-1.34-4l-.09-.23c-.38-1-.78-2-1.21-3-.56-1.3-1.16-2.57-1.8-3.82a1.74,1.74,0,0,1-.1-.19c-.07-.12-.13-.24-.19-.36-.39-.74-.79-1.46-1.2-2.18a64.47,64.47,0,0,0-5.5-8.07,65.39,65.39,0,0,0-5.1-5.68H30.94l-.53.52c-.5.51-1,1-1.48,1.56a65.26,65.26,0,0,0-8.59,11.67H114a6.88,6.88,0,0,1,0,13.76h-30a6.88,6.88,0,0,0,0,13.76h5.8a6.88,6.88,0,0,1,0,13.76H82.11a6.88,6.88,0,0,0,0,13.75h55.51c.22-.59.44-1.2.64-1.81a64.08,64.08,0,0,0,2.81-11.94h-24.2A6.88,6.88,0,0,1,110,74.55Z"/><path class="cls-4" d="M58.94,88.31c0-3.8-1.27-6.88-5.07-6.88h0a6.88,6.88,0,0,1,0-13.76h0c3.8,0,5.8-3.08,5.8-6.88a6.88,6.88,0,0,0-6.88-6.88H14.41a63.81,63.81,0,0,0-2.52,13.76,2.19,2.19,0,0,0,0,.36c-.11,1.5-.16,3-.16,4.53V73h0a6.64,6.64,0,0,1,.18,1.55,6.34,6.34,0,0,1-.1,1.16h0c.08,1.93.26,3.83.52,5.71.13,1,.28,1.93.46,2.89a64.57,64.57,0,0,0,2.34,9.05c.21.61.42,1.22.65,1.81H52.06A6.88,6.88,0,0,0,58.94,88.31Z"/><path class="cls-5" d="M131.43,86.4a4.22,4.22,0,0,1-1.4.93c-6.08,2.83-27.9,4.92-53.89,4.92-25.45,0-46.91-2-53.49-4.74a4.71,4.71,0,0,1-1.83-1.15c6.69,24.3,28.92,43.18,55.32,43.18a57.39,57.39,0,0,0,55.64-43.29Z"/><path class="cls-5" d="M20.65,85.38l-.1,0a1.21,1.21,0,0,0,.05.18A1.21,1.21,0,0,1,20.65,85.38Z"/><path class="cls-6" d="M131.71,85.74c0,.55-.58,1.08-1.68,1.59-6.08,2.83-27.9,4.92-53.89,4.92-25.45,0-46.91-2-53.49-4.74-1.36-.56-2.08-1.16-2.08-1.77s.47-1,1.38-1.45c3.42-1.77,13-3.27,25.92-4.16,8.28-.58,17.95-.91,28.27-.91s20,.33,28.24.9c13.38.93,23.16,2.5,26.28,4.35C131.35,84.87,131.71,85.3,131.71,85.74Z"/><rect class="cls-7" x="149.8" y="67.38" width="5.58" height="5.58"/><rect class="cls-8" x="37.21" y="28.64" width="5.58" height="5.58"/><rect class="cls-7" y="44.27" width="5.58" height="5.58"/><rect class="cls-7" x="108.81" width="5.58" height="5.58"/><rect class="cls-8" x="19.32" y="77.23" width="5.58" height="5.58"/><rect class="cls-8" x="105.85" y="105.83" width="5.58" height="5.58"/><rect class="cls-7" x="142.99" y="97.74" width="5.58" height="5.58"/><rect class="cls-7" x="34.38" y="143" width="5.58" height="5.58"/><path class="cls-9" d="M100.45,43.28l-1.52,1.54-37,37.43-2.26,2.29-4-4.09s-1.47-1.52-1.47-2.55V43.81a6.24,6.24,0,0,1,6.25-6.25H92.68a6.19,6.19,0,0,1,4,1.45L98,40.45Z"/><rect class="cls-8" x="57.54" y="41.4" width="44.7" height="44.7" rx="6.25"/><path class="cls-9" d="M107,47.66a5.12,5.12,0,0,0-7.24,0L79.41,68.05l-6.9-6.9a5.12,5.12,0,0,0-7.24,7.25L75.68,78.8a5.1,5.1,0,0,0,3.62,1.5h.22a5.13,5.13,0,0,0,3.63-1.5L107,54.91A5.13,5.13,0,0,0,107,47.66Z"/><circle class="cls-10" cx="76.86" cy="71.83" r="69.69"/></g></g></svg>