<svg xmlns="http://www.w3.org/2000/svg" xmlns:xlink="http://www.w3.org/1999/xlink" viewBox="0 0 151 143.39"><defs><style>.cls-1{isolation:isolate;}.cls-2{fill:url(#Degradado_sin_nombre_16);}.cls-3{fill:blue;}.cls-4{fill:#0000e6;}.cls-5,.cls-8{fill:#fff;}.cls-6{fill:#0303ef;}.cls-7{fill:#f2f2f2;}.cls-7,.cls-9{opacity:0.2;}.cls-8{opacity:0.1;mix-blend-mode:lighten;}.cls-10,.cls-9{fill:aqua;}.cls-10{opacity:0.4;}.cls-11{fill:#2ebfff;}.cls-12{fill:#9ffffc;}.cls-13{fill:#00a0d8;}</style><linearGradient id="Degradado_sin_nombre_16" x1="140.05" y1="71.69" x2="6.35" y2="71.69" gradientUnits="userSpaceOnUse"><stop offset="0" stop-color="#5324ff"/><stop offset="1" stop-color="blue"/></linearGradient></defs><title>Salespace</title><g class="cls-1"><g id="Capa_2" data-name="Capa 2"><g id="Capa_1-2" data-name="Capa 1"><path class="cls-2" d="M140.05,71.69a66.69,66.69,0,0,1-11,36.74l-.25.37a66.91,66.91,0,0,1-43.69,28.69h0a67.84,67.84,0,0,1-11.92,1.06,66.54,66.54,0,0,1-34.6-9.64l-.6-.37a67,67,0,0,1-16.85-14.9q-.91-1.12-1.77-2.28A66.85,66.85,0,0,1,73.2,4.84c1.55,0,3.08,0,4.6.16a66.74,66.74,0,0,1,62.25,66.69Z"/><path class="cls-3" d="M136.4,93.9a66.16,66.16,0,0,1-7.33,14.9H105.3l-.55.37-27,18.44a7.45,7.45,0,0,1-4.21,1.3H38.37A67,67,0,0,1,21.52,114H71.27L98.79,95.2A7.5,7.5,0,0,1,103,93.9Z"/><path class="cls-4" d="M128.82,108.8a67.18,67.18,0,0,1-13.6,14.9H105.3L85.13,137.49h0a67.84,67.84,0,0,1-11.92,1.06,66.54,66.54,0,0,1-34.6-9.64H71.27l.55-.37,27-18.44a7.42,7.42,0,0,1,4.21-1.3Z"/><rect class="cls-5" x="79.54" y="119.61" width="5.67" height="5.67"/><rect class="cls-5" x="37.8" y="32.34" width="5.67" height="5.67"/><rect class="cls-5" x="18.51" y="59.57" width="5.67" height="5.67"/><ellipse class="cls-6" cx="46.38" cy="17.37" rx="13.04" ry="3.91" transform="translate(-2.93 21.95) rotate(-25.84)"/><circle class="cls-7" cx="73.2" cy="71.69" r="71.69"/><rect class="cls-3" x="10.81" y="134.61" width="5.67" height="5.67"/><rect class="cls-3" x="125.83" y="7.18" width="5.67" height="5.67"/><rect class="cls-3" y="25.95" width="5.67" height="5.67"/><rect class="cls-3" x="137.24" y="21.53" width="5.67" height="5.67"/><rect class="cls-3" x="145.33" y="91.8" width="5.67" height="5.67"/><ellipse class="cls-8" cx="104.3" cy="43.58" rx="17.5" ry="32.4" transform="translate(-3.24 78.4) rotate(-40.62)"/><path class="cls-9" d="M129.33,85.85a4,4,0,0,1-1.42,1c-6.17,2.88-28.35,5-54.76,5-25.87,0-47.68-2-54.36-4.82a4.68,4.68,0,0,1-1.86-1.17c6.8,24.7,29.39,43.89,56.22,43.89a58.32,58.32,0,0,0,56.54-44Z"/><path class="cls-9" d="M16.76,84.82l-.11,0a1.05,1.05,0,0,1,.05.19A.94.94,0,0,1,16.76,84.82Z"/><path class="cls-10" d="M129.63,85.18c0,.56-.6,1.11-1.72,1.62-6.17,2.88-28.35,5-54.76,5-25.87,0-47.68-2-54.36-4.82-1.38-.57-2.12-1.17-2.12-1.8s.49-1,1.41-1.47c3.48-1.8,13.19-3.32,26.34-4.23,8.42-.59,18.24-.92,28.73-.92s20.28.33,28.69.92c13.61.94,23.54,2.53,26.71,4.41C129.26,84.31,129.63,84.74,129.63,85.18Z"/><rect class="cls-11" x="85.81" y="46.18" width="13.62" height="40.1"/><polygon class="cls-12" points="99.46 46.18 96.88 43.97 83.27 43.97 85.84 46.18 99.46 46.18"/><polygon class="cls-13" points="85.84 86.28 85.84 46.18 83.27 43.97 83.27 84.08 85.84 86.28"/><rect class="cls-11" x="67.78" y="57.59" width="13.62" height="28.7"/><polygon class="cls-12" points="81.43 57.59 78.85 55.38 65.24 55.38 67.81 57.59 81.43 57.59"/><polygon class="cls-13" points="67.81 86.28 67.81 57.59 65.24 55.38 65.24 84.08 67.81 86.28"/><rect class="cls-11" x="50.12" y="67.89" width="13.62" height="18.4"/><polygon class="cls-12" points="63.77 67.89 61.19 65.68 47.58 65.68 50.15 67.89 63.77 67.89"/><polygon class="cls-13" points="50.15 86.28 50.15 67.89 47.58 65.68 47.58 84.08 50.15 86.28"/></g></g></g></svg>